<svg xmlns="http://www.w3.org/2000/svg" width="220" height="130" viewBox="0 0 220 130">
    <path fill="#000" fill-rule="nonzero" d="M36.453 29.087c3.657.752 6.488 2.267 8.493 4.547 2.004 2.28 3.006 4.923 3.006 7.93 0 4.108-1.766 7.403-5.299 9.883-3.532 2.48-8.33 3.796-14.393 3.946H.451L0 52.988c1.904-1.303 4.034-2.48 6.389-3.533V10.372L1.052 9.62l.075-3.983c6.715-.4 15.183-.601 25.404-.601 5.713 0 10.347 1.202 13.905 3.607 3.558 2.406 5.336 5.487 5.336 9.245 0 2.455-.801 4.773-2.405 6.952-1.603 2.18-3.908 3.596-6.914 4.247zM17.707 12.702v14.13h3.382c2.957 0 5.174-.714 6.652-2.142 1.478-1.428 2.217-3.17 2.217-5.224 0-1.703-.463-3.332-1.39-4.885-.927-1.553-2.142-2.555-3.646-3.006l-7.215 1.127zm5.261 36.302l1.128.075c2.455 0 4.334-.776 5.637-2.33 1.302-1.553 1.954-3.382 1.954-5.486 0-2.355-.79-4.435-2.368-6.238-1.578-1.804-3.545-2.731-5.9-2.781h-5.712v16.159l5.261.601zm28.14-11.875c0-5.662 1.78-10.297 5.337-13.905 3.558-3.607 8.067-5.411 13.529-5.411s9.946 1.829 13.454 5.487c3.507 3.657 5.26 8.392 5.26 14.205 0 5.762-1.715 10.435-5.148 14.017-3.432 3.583-7.854 5.374-13.265 5.374-5.512 0-10.084-1.866-13.717-5.6-3.633-3.732-5.45-8.455-5.45-14.167zM70.47 49.756c1.854-1.403 2.781-5.211 2.781-11.424 0-8.87-2.03-13.304-6.088-13.304-1.252 0-2.23.276-2.931.827-1.503 2.004-2.255 5.812-2.255 11.424 0 3.808.526 6.903 1.579 9.283 1.052 2.38 2.655 3.57 4.81 3.57.701 0 1.403-.126 2.104-.376zm41.144-2.706c1.753 0 3.758-.225 6.012-.676l.527 3.908-12.402 6.389c-2.505.1-4.798-.69-6.877-2.368-2.08-1.678-3.12-3.645-3.12-5.9V28.26h-5.486l-.225-4.058c1.653-1.403 3.783-2.857 6.388-4.36l4.134-10.071h5.938l1.879 10.071h10.372l.075 3.758-3.758 4.735h-6.313v15.483c0 2.155.952 3.232 2.856 3.232zm30.214 0c1.754 0 3.758-.225 6.013-.676l.526 3.908-12.402 6.389c-2.505.1-4.797-.69-6.877-2.368s-3.119-3.645-3.119-5.9V28.26h-5.487l-.225-4.058c1.654-1.403 3.783-2.857 6.389-4.36l4.133-10.071h5.938l1.88 10.071h10.371l.075 3.758-3.758 4.735h-6.313v15.483c0 2.155.952 3.232 2.856 3.232zm27.96 2.03c2.204.751 4.008 1.628 5.411 2.63l-.15 3.683h-23.826l-.15-2.63a32.926 32.926 0 0 1 5.712-2.556V7.516l-5.562-.977-.376-3.758c4.21-1.503 9.17-2.43 14.882-2.781l4.058 3.758v45.321zm36.647-10.899l-18.94-.15c.35 3.257 1.515 5.762 3.494 7.516 1.98 1.754 4.472 2.63 7.479 2.63 2.655 0 5.837-.951 9.545-2.856l1.88 4.285-11.801 6.689-3.457.225c-5.562 0-10.185-1.753-13.867-5.26-3.683-3.508-5.525-7.993-5.525-13.455 0-5.561 1.867-10.284 5.6-14.167 3.733-3.883 8.255-5.825 13.566-5.825 4.86 0 8.819 1.466 11.875 4.397 3.057 2.931 4.56 6.802 4.51 11.612l-4.36 4.36zm-14.055-14.13c-2.405 1.503-3.934 4.26-4.585 8.268l11.274-.677c-.3-2.054-1.065-3.82-2.292-5.298-1.228-1.479-2.694-2.243-4.397-2.293zm-65.874 85.355l-15.783 6.69c-6.564.25-11.926-.852-16.085-3.308-4.158-2.455-7.152-5.662-8.981-9.62-1.83-3.959-2.744-8.142-2.744-12.552 0-4.71.99-9.12 2.97-13.228 1.979-4.109 4.947-7.44 8.906-9.996 3.958-2.556 8.768-3.833 14.43-3.833 6.063 0 11.35 1.628 15.86 4.885l.074 1.428c0 4.059-.626 8.393-1.879 13.003h-8.117l-2.255-10.072a31.195 31.195 0 0 0-9.77-2.03c-2.205 1.955-3.846 4.536-4.923 7.742-1.078 3.207-1.616 6.59-1.616 10.147 0 5.512 1.29 10.021 3.87 13.529 2.58 3.507 6.301 5.21 11.162 5.11l12.777-4.058 2.104 6.163zm42.004 1.128l-9.921 5.561c-1.403-.05-2.806-.576-4.21-1.578-1.402-1.002-2.555-2.305-3.457-3.908l-7.967 5.186-2.555.225c-3.257 0-5.975-.952-8.155-2.856-2.18-1.904-3.27-4.209-3.27-6.915 0-3.758 2.03-6.714 6.089-8.868l14.28-.301v-6.163c0-3.858-1.153-6.389-3.457-7.591-1.604.1-3.007.4-4.21.902l-1.803 8.267-7.366.15c-.952-2.705-1.428-5.561-1.428-8.568l.15-2.78c3.007-1.153 6.49-2.143 10.448-2.97 3.958-.826 7.015-1.24 9.17-1.24 4.459 0 7.991 1.83 10.597 5.487.55.952.852 2.856.902 5.712v17.212c0 1.303.626 1.954 1.879 1.954l2.029-.075 1.804-.15.45 3.307zm-28.968-5.111c0 1.302.426 2.38 1.278 3.232 1.503-.1 3.583-.577 6.238-1.428v-5.562c-5.01-.1-7.516 1.152-7.516 3.758zm51.86 9.846c-1.803 0-3.582-.176-5.336-.526v8.342c3.007 1.203 5.387 2.28 7.14 3.232l-.15 3.683h-24.803l-.15-2.63 4.96-1.955V84.83l-5.486-1.052-.376-3.608c4.46-1.704 9.42-2.63 14.882-2.781v.075l3.983 3.533v2.78l7.892-5.862 2.556-.225c4.108 0 7.478 1.666 10.109 4.998 2.63 3.332 3.946 7.503 3.946 12.514 0 5.862-1.78 10.673-5.337 14.43-3.557 3.759-8.167 5.638-13.83 5.638zm-1.728-28.486c-1.102 0-2.305.3-3.608.902v20.594c2.255.601 4.41.827 6.464.676 1.253-1.202 2.267-2.868 3.044-4.998a19.05 19.05 0 0 0 1.165-6.576c0-2.907-.626-5.4-1.879-7.479-1.253-2.08-2.981-3.119-5.186-3.119z"/>
</svg>
